<svg width="46" height="42" viewBox="0 0 46 42" fill="none" xmlns="http://www.w3.org/2000/svg">
<rect x="0.5" y="0.5" width="45" height="41" rx="3.5" stroke="#082F49" stroke-opacity="0.4"/>
<path d="M5 38.6V5H19.592C21.704 5 23.544 5.368 25.112 6.104C26.68 6.84 27.896 7.88 28.76 9.224C29.624 10.568 30.056 12.152 30.056 13.976V14.552C30.056 16.568 29.576 18.2 28.616 19.448C27.656 20.696 26.472 21.608 25.064 22.184V23.048C26.344 23.112 27.336 23.56 28.04 24.392C28.744 25.192 29.096 26.264 29.096 27.608V38.6H22.76V28.52C22.76 27.752 22.552 27.128 22.136 26.648C21.752 26.168 21.096 25.928 20.168 25.928H11.336V38.6H5ZM11.336 20.168H18.92C20.424 20.168 21.592 19.768 22.424 18.968C23.288 18.136 23.72 17.048 23.72 15.704V15.224C23.72 13.88 23.304 12.808 22.472 12.008C21.64 11.176 20.456 10.76 18.92 10.76H11.336V20.168Z" fill="#082F49"/>
<path d="M34 9.60811V36H41V9.60811L37.5 5L34 9.60811Z" fill="#E0F2FE"/>
<path d="M34 39L35.5 36H39.5L41 39H34Z" fill="#FFA500"/>
</svg>
